<svg xmlns="http://www.w3.org/2000/svg" xml:space="preserve" width="2048" height="2048" style="shape-rendering:geometricPrecision;text-rendering:geometricPrecision;image-rendering:optimizeQuality;fill-rule:evenodd;clip-rule:evenodd"><defs><style>.fil0{fill:#212121;fill-rule:nonzero}</style></defs><g id="Layer_x0020_1"><g id="_557073344"><path id="_557074256" class="fil0" d="M728.792 1168.65h123.372v-129.748c0-17.673 14.328-32 32-32 4.976 0 9.686 1.134 13.886 3.161a353.544 353.544 0 0 0 60.46 16.892c20.88 3.876 42.761 5.904 65.492 5.904 22.73 0 44.611-2.029 65.488-5.904a353.672 353.672 0 0 0 62.845-17.801l11.5 29.75-11.523-29.854c16.487-6.364 35.014 1.842 41.378 18.329a31.9 31.9 0 0 1 2.147 12.106v129.164h123.373c111.379 0 212.612 45.543 285.983 118.913 73.371 73.372 118.913 174.605 118.913 285.983v186.45c0 17.672-14.328 32-32.001 32H355.895c-17.673 0-32-14.328-32-32v-186.45c0-111.378 45.541-212.612 118.912-285.983 73.371-73.371 174.604-118.913 285.983-118.913zm155.373 64.002H728.792c-93.714 0-178.931 38.36-240.732 100.162-61.801 61.8-100.162 147.02-100.162 240.732v154.448h1272.21v-154.448c0-93.713-38.361-178.931-100.162-240.732-61.801-61.802-147.019-100.162-240.732-100.162H1163.84c-17.673 0-32-14.328-32-32.001v-117.884a418.071 418.071 0 0 1-30.847 6.938c-25.305 4.697-51.048 7.156-76.987 7.156-25.941 0-51.684-2.46-76.99-7.156a418.21 418.21 0 0 1-30.846-6.938v117.884c0 17.673-14.328 32-32.001 32z"/><path id="_557074304" class="fil0" d="M1024 255.998c116.095 0 221.204 47.06 297.29 123.144 76.084 76.085 123.144 181.194 123.144 297.29 0 116.095-47.06 221.204-123.144 297.288s-181.194 123.145-297.29 123.145c-116.095 0-221.204-47.06-297.288-123.145-76.084-76.084-123.144-181.193-123.144-297.288s47.06-221.204 123.144-297.288C802.796 303.059 907.905 255.999 1024 255.999zm252.039 168.395C1211.539 359.894 1122.429 320 1024 320c-98.43 0-187.539 39.894-252.038 104.394-64.499 64.499-104.393 153.608-104.393 252.038s39.894 187.539 104.393 252.038c64.499 64.5 153.608 104.394 252.038 104.394s187.54-39.895 252.039-104.394 104.393-153.608 104.393-252.038-39.894-187.539-104.393-252.039z"/><path id="_557073056" class="fil0" d="M644.887 575.21c-17.535-1.726-33.15 11.09-34.876 28.625-1.725 17.535 11.091 33.15 28.626 34.876.523.053 171.689 19.223 469.818-121.25 19.641 43.692 87.943 97.95 294.358 123.797 17.534 2.14 33.485-10.34 35.625-27.875 2.14-17.535-10.34-33.486-27.875-35.626-258.096-32.318-249.34-84.738-246.092-93.258 5.43-9.083 6.24-20.666 1.134-30.822-7.94-15.789-27.177-22.15-42.966-14.21l14.377 28.588-14.375-28.5C814.862 594.344 645.382 575.259 644.887 575.209z"/><path id="_557073008" class="fil0" d="M646.294 1206.41c-14.497-10.01-34.365-6.372-44.375 8.125-10.01 14.497-6.372 34.365 8.125 44.375l395.994 274.1-.057.083c12.033 8.329 27.771 7.275 38.54-1.585l393.827-272.597c14.497-10.01 18.135-29.879 8.125-44.376-10.01-14.496-29.878-18.134-44.375-8.124l-377.905 261.575-377.9-261.575z"/><path id="_557073248" class="fil0" d="M568.256 1760c0 17.673 14.328 32 32 32 17.674 0 32.002-14.327 32.002-32v-224c0-17.673-14.328-32-32.001-32s-32.001 14.327-32.001 32v224z"/><path id="_557073632" class="fil0" d="M1415.74 1760c0 17.673 14.328 32 32 32 17.674 0 32.002-14.327 32.002-32v-224c0-17.673-14.328-32-32.001-32s-32.001 14.327-32.001 32v224z"/><path id="_557073560" class="fil0" d="M529.48 1245.49c2.623 17.465 18.91 29.498 36.376 26.875 17.465-2.623 29.498-18.91 26.874-36.376-18.914-124.497-19.05-246.179-2.212-361.733C607.73 756.13 642.74 644.24 693.6 542.158c7.87-15.809 1.434-35.005-14.375-42.875-15.81-7.87-35.006-1.434-42.875 14.375-53.797 107.976-90.844 226.435-109.081 351.598-17.735 121.713-17.63 249.627 2.212 380.234z"/><path id="_557073080" class="fil0" d="M1455.21 1235.99c-2.623 17.465 9.41 33.752 26.875 36.376 17.465 2.623 33.752-9.41 36.375-26.875 19.843-130.606 19.947-258.521 2.213-380.234-18.238-125.163-55.284-243.621-109.081-351.598-7.87-15.81-27.067-22.245-42.876-14.375-15.809 7.87-22.244 27.066-14.375 42.875 50.86 102.08 85.869 213.97 103.081 332.098 16.838 115.554 16.702 237.236-2.212 361.733z"/></g></g><path style="fill:none" d="M0 0h2048v2048H0z"/></svg>